<svg width="39" height="49" viewBox="0 0 39 49" fill="none" xmlns="http://www.w3.org/2000/svg">
<g clip-path="url(#clip0)">
<path fill-rule="evenodd" clip-rule="evenodd" d="M15.24 28.65C15.24 29.43 15.42 30.09 15.81 30.77C16.2 31.44 16.69 31.93 17.36 32.32C18.04 32.71 18.7 32.89 19.48 32.89C20.26 32.89 20.93 32.71 21.6 32.32C22.28 31.93 22.76 31.44 23.15 30.77C23.54 30.09 23.72 29.43 23.72 28.65C23.72 27.87 23.54 27.2 23.15 26.53C22.76 25.85 22.28 25.37 21.6 24.98C20.93 24.59 20.26 24.41 19.48 24.41C18.7 24.41 18.04 24.59 17.36 24.98C16.69 25.37 16.2 25.85 15.81 26.53C15.42 27.2 15.24 27.87 15.24 28.65Z" fill="#CDC4BE"/>
<path fill-rule="evenodd" clip-rule="evenodd" d="M0.220009 23.14L6.16001 22.3C5.79001 19.67 6.07001 17.32 7.07001 14.86C8.06001 12.39 9.47001 10.51 11.56 8.87C13.67 7.23 15.82 6.31 18.45 5.94L17.61 1.90735e-06C13.88 0.530002 10.83 1.83 7.86001 4.14C4.89001 6.47 2.92001 9.13 1.50001 12.63C0.100009 16.12 -0.309992 19.41 0.220009 23.14Z" fill="#A0A3B5"/>
<path fill-rule="evenodd" clip-rule="evenodd" d="M12.08 18.25C16.54 19.13 20.13 20.88 23.56 23.88C26.99 26.86 29.22 30.18 30.69 34.49C32.17 38.79 32.44 42.78 31.56 47.24L37.63 48.43C38.72 42.86 38.39 37.86 36.54 32.48C34.7 27.11 31.9 22.95 27.62 19.22C23.34 15.49 18.85 13.28 13.27 12.19L12.08 18.25Z" fill="#A0A3B5"/>
</g>
<defs>
<clipPath id="clip0">
<rect width="38.25" height="48.43" fill="white"/>
</clipPath>
</defs>
</svg>
