<svg width="110" height="24" viewBox="0 0 110 24" fill="none" xmlns="http://www.w3.org/2000/svg">
<g clip-path="url(#clip0)">
<path fill-rule="evenodd" clip-rule="evenodd" d="M12.23 20.24C11.7 20.81 11.19 21.3 10.71 21.69C10.23 22.09 9.74 22.4 9.25 22.64C8.75 22.88 8.23 23.05 7.68 23.15C7.13 23.24 6.53 23.29 5.88 23.29C4.96 23.29 4.13 23.14 3.4 22.82C2.67 22.5 2.05 22.06 1.55 21.48C1.04 20.9 0.66 20.2 0.39 19.38C0.13 18.56 0 17.65 0 16.65C0 15.36 0.2 14.12 0.62 12.95C1.03 11.77 1.61 10.74 2.36 9.84C3.1 8.95 3.98 8.24 5.01 7.7C6.03 7.17 7.15 6.9 8.36 6.9C9.42 6.9 10.31 7.09 11.05 7.46C11.79 7.83 12.45 8.39 13.03 9.14L11.81 10.6C11.71 10.69 11.61 10.78 11.49 10.85C11.37 10.93 11.24 10.97 11.09 10.97C10.92 10.97 10.76 10.92 10.61 10.81C10.47 10.7 10.3 10.58 10.11 10.46C9.92 10.33 9.68 10.22 9.39 10.11C9.11 10 8.74 9.95 8.28 9.95C7.69 9.95 7.13 10.11 6.59 10.43C6.05 10.75 5.58 11.2 5.17 11.79C4.76 12.38 4.44 13.09 4.19 13.92C3.95 14.75 3.83 15.66 3.83 16.67C3.83 17.83 4.09 18.74 4.61 19.37C5.12 20.01 5.82 20.33 6.7 20.33C7.29 20.33 7.78 20.24 8.17 20.07C8.56 19.9 8.88 19.72 9.15 19.51C9.42 19.31 9.66 19.13 9.87 18.95C10.09 18.78 10.32 18.7 10.57 18.7C10.69 18.7 10.81 18.73 10.93 18.8C11.05 18.87 11.15 18.95 11.25 19.06L12.23 20.24Z" fill="#50545B"/>
<path fill-rule="evenodd" clip-rule="evenodd" d="M12.15 23.06L14.96 0H18.78L17.58 9.85C18.36 8.85 19.2 8.1 20.11 7.62C21.01 7.13 21.93 6.89 22.88 6.89C23.48 6.89 24.02 6.99 24.51 7.21C24.99 7.42 25.41 7.73 25.75 8.14C26.09 8.55 26.35 9.05 26.54 9.64C26.72 10.24 26.82 10.92 26.82 11.7C26.82 11.9 26.81 12.1 26.79 12.3C26.78 12.5 26.76 12.71 26.74 12.93L25.54 23.06H21.71L22.91 12.93C22.93 12.74 22.95 12.56 22.96 12.4C22.98 12.23 22.98 12.08 22.98 11.93C22.98 11.25 22.85 10.76 22.6 10.46C22.34 10.16 21.94 10.01 21.42 10.01C21.02 10.01 20.61 10.12 20.19 10.34C19.77 10.56 19.36 10.88 18.96 11.29C18.57 11.7 18.2 12.19 17.86 12.77C17.52 13.35 17.23 14 16.99 14.71L15.98 23.06H12.15Z" fill="#50545B"/>
<path fill-rule="evenodd" clip-rule="evenodd" d="M32.91 7.14L31.01 23.06H27.22L29.13 7.14H32.91ZM33.88 2.5C33.88 2.83 33.81 3.14 33.67 3.43C33.53 3.72 33.35 3.97 33.12 4.19C32.9 4.4 32.65 4.58 32.36 4.71C32.07 4.84 31.77 4.9 31.46 4.9C31.16 4.9 30.86 4.84 30.58 4.71C30.29 4.58 30.04 4.4 29.83 4.19C29.61 3.97 29.44 3.72 29.31 3.43C29.18 3.14 29.11 2.83 29.11 2.5C29.11 2.16 29.18 1.85 29.31 1.55C29.45 1.25 29.62 0.990001 29.84 0.770001C30.06 0.540001 30.31 0.370001 30.59 0.240001C30.88 0.110001 31.17 0.0400009 31.47 0.0400009C31.78 0.0400009 32.08 0.110001 32.37 0.240001C32.66 0.370001 32.92 0.540001 33.14 0.760001C33.36 0.980001 33.54 1.23 33.67 1.53C33.81 1.83 33.88 2.15 33.88 2.5Z" fill="#50545B"/>
<path fill-rule="evenodd" clip-rule="evenodd" d="M45.08 20.24C44.55 20.81 44.04 21.3 43.56 21.69C43.08 22.09 42.59 22.4 42.1 22.64C41.6 22.88 41.08 23.05 40.53 23.15C39.98 23.24 39.38 23.29 38.73 23.29C37.81 23.29 36.98 23.14 36.25 22.82C35.52 22.5 34.9 22.06 34.4 21.48C33.89 20.9 33.51 20.2 33.24 19.38C32.98 18.56 32.85 17.65 32.85 16.65C32.85 15.36 33.05 14.12 33.47 12.95C33.88 11.77 34.46 10.74 35.21 9.84C35.95 8.95 36.83 8.24 37.86 7.7C38.88 7.17 40 6.9 41.21 6.9C42.27 6.9 43.16 7.09 43.9 7.46C44.64 7.83 45.3 8.39 45.88 9.14L44.66 10.6C44.56 10.69 44.46 10.78 44.34 10.85C44.22 10.93 44.09 10.97 43.94 10.97C43.77 10.97 43.61 10.92 43.46 10.81C43.32 10.7 43.15 10.58 42.96 10.46C42.77 10.33 42.53 10.22 42.24 10.11C41.96 10 41.59 9.95 41.13 9.95C40.54 9.95 39.98 10.11 39.44 10.43C38.9 10.75 38.43 11.2 38.02 11.79C37.61 12.38 37.29 13.09 37.04 13.92C36.8 14.75 36.68 15.66 36.68 16.67C36.68 17.83 36.94 18.74 37.46 19.37C37.97 20.01 38.67 20.33 39.55 20.33C40.14 20.33 40.63 20.24 41.02 20.07C41.41 19.9 41.73 19.72 42 19.51C42.27 19.31 42.51 19.13 42.72 18.95C42.94 18.78 43.17 18.7 43.42 18.7C43.54 18.7 43.66 18.73 43.78 18.8C43.9 18.87 44 18.95 44.1 19.06L45.08 20.24Z" fill="#50545B"/>
<path fill-rule="evenodd" clip-rule="evenodd" d="M51.57 0L49.96 13.2H50.35C50.59 13.2 50.78 13.17 50.93 13.1C51.08 13.02 51.24 12.89 51.4 12.69L55.62 7.8C55.81 7.6 56 7.43 56.2 7.31C56.4 7.2 56.64 7.14 56.94 7.14H60.36L55.11 13.05C54.92 13.27 54.72 13.47 54.52 13.65C54.33 13.83 54.12 13.99 53.9 14.12C54.1 14.27 54.26 14.44 54.39 14.66C54.52 14.87 54.65 15.09 54.77 15.33L58.71 23.06H55.39C55.11 23.06 54.88 23.01 54.7 22.9C54.52 22.8 54.37 22.63 54.24 22.38L51.15 16.34C51.03 16.1 50.9 15.95 50.77 15.87C50.65 15.8 50.44 15.77 50.15 15.77H49.63L48.75 23.06H44.96L47.79 0H51.57Z" fill="#50545B"/>
<path fill-rule="evenodd" clip-rule="evenodd" d="M70.84 23.06H68.82C68.35 23.06 68.03 22.95 67.84 22.73C67.65 22.52 67.56 22.24 67.56 21.91L67.69 19.74C66.98 20.84 66.19 21.7 65.31 22.34C64.43 22.97 63.46 23.29 62.41 23.29C61.81 23.29 61.25 23.17 60.72 22.94C60.2 22.7 59.75 22.34 59.36 21.87C58.97 21.4 58.67 20.81 58.44 20.1C58.22 19.39 58.11 18.56 58.11 17.61C58.11 16.66 58.23 15.73 58.47 14.83C58.7 13.93 59.04 13.09 59.48 12.3C59.92 11.51 60.45 10.78 61.07 10.12C61.69 9.45 62.39 8.89 63.16 8.41C63.93 7.93 64.77 7.56 65.66 7.3C66.56 7.04 67.5 6.9 68.49 6.9C69.21 6.9 69.92 6.96 70.64 7.06C71.36 7.16 72.07 7.35 72.76 7.62L70.84 23.06ZM63.91 20.16C64.34 20.16 64.75 20.01 65.16 19.72C65.57 19.43 65.96 19.03 66.32 18.52C66.68 18.01 67.02 17.41 67.33 16.71C67.64 16.02 67.91 15.27 68.14 14.48L68.74 9.67C68.46 9.64 68.2 9.62 67.96 9.62C67.11 9.62 66.31 9.82 65.57 10.21C64.84 10.6 64.2 11.13 63.67 11.8C63.13 12.47 62.71 13.24 62.4 14.13C62.1 15.01 61.94 15.95 61.94 16.93C61.94 18.05 62.12 18.86 62.47 19.38C62.82 19.9 63.3 20.16 63.91 20.16Z" fill="#50545B"/>
<path fill-rule="evenodd" clip-rule="evenodd" d="M72.38 23.06L74.32 7.12H76.26C76.63 7.12 76.93 7.2 77.17 7.37C77.41 7.53 77.53 7.8 77.53 8.16C77.53 8.16 77.53 8.18 77.53 8.22C77.53 8.25 77.52 8.36 77.51 8.53C77.5 8.71 77.49 8.99 77.48 9.36C77.47 9.74 77.45 10.27 77.42 10.95C78.07 9.7 78.79 8.74 79.56 8.05C80.34 7.37 81.15 7.03 81.98 7.03C82.41 7.03 82.84 7.12 83.27 7.31L82.57 10.97C82.06 10.75 81.56 10.64 81.1 10.64C80.18 10.64 79.37 11.08 78.68 11.96C77.98 12.84 77.42 14.22 76.97 16.09L76.13 23.06H72.38Z" fill="#50545B"/>
<path fill-rule="evenodd" clip-rule="evenodd" d="M77.78 20.95C77.78 20.63 77.84 20.32 77.96 20.03C78.08 19.74 78.24 19.5 78.45 19.29C78.66 19.08 78.91 18.92 79.2 18.79C79.48 18.67 79.79 18.61 80.12 18.61C80.45 18.61 80.76 18.67 81.04 18.79C81.33 18.92 81.58 19.08 81.79 19.29C82 19.5 82.17 19.74 82.29 20.03C82.42 20.32 82.48 20.63 82.48 20.95C82.48 21.28 82.42 21.59 82.29 21.87C82.17 22.16 82 22.4 81.79 22.61C81.58 22.82 81.33 22.98 81.04 23.1C80.76 23.22 80.45 23.28 80.12 23.28C79.79 23.28 79.48 23.22 79.2 23.1C78.91 22.98 78.66 22.82 78.45 22.61C78.24 22.4 78.08 22.16 77.96 21.87C77.84 21.59 77.78 21.28 77.78 20.95Z" fill="#A0A3B5"/>
<path fill-rule="evenodd" clip-rule="evenodd" d="M96.04 10.83C96.04 11.54 95.9 12.2 95.61 12.79C95.33 13.38 94.82 13.9 94.08 14.37C93.35 14.83 92.35 15.24 91.09 15.57C89.84 15.91 88.24 16.17 86.29 16.37V16.57C86.29 19.08 87.35 20.33 89.47 20.33C89.93 20.33 90.33 20.28 90.68 20.2C91.03 20.11 91.34 20 91.61 19.88C91.87 19.75 92.11 19.61 92.32 19.46C92.53 19.3 92.73 19.16 92.91 19.04C93.09 18.92 93.27 18.81 93.45 18.72C93.62 18.63 93.81 18.59 94.02 18.59C94.14 18.59 94.27 18.62 94.39 18.68C94.52 18.73 94.62 18.82 94.7 18.93L95.68 20.11C95.13 20.66 94.59 21.14 94.07 21.54C93.54 21.94 93 22.27 92.45 22.53C91.9 22.79 91.32 22.98 90.71 23.11C90.1 23.23 89.44 23.29 88.71 23.29C87.78 23.29 86.94 23.14 86.18 22.82C85.43 22.5 84.78 22.06 84.24 21.48C83.7 20.91 83.29 20.22 82.99 19.41C82.7 18.59 82.55 17.68 82.55 16.68C82.55 15.84 82.64 15.02 82.82 14.21C83 13.41 83.26 12.64 83.61 11.92C83.95 11.19 84.37 10.53 84.86 9.91C85.36 9.3 85.92 8.78 86.55 8.33C87.17 7.89 87.86 7.54 88.61 7.29C89.36 7.04 90.17 6.92 91.02 6.92C91.86 6.92 92.59 7.04 93.22 7.28C93.85 7.51 94.37 7.82 94.79 8.2C95.21 8.58 95.52 9 95.73 9.46C95.93 9.93 96.04 10.39 96.04 10.83ZM90.81 9.59C90.29 9.59 89.81 9.69 89.36 9.91C88.92 10.12 88.52 10.42 88.16 10.8C87.8 11.18 87.49 11.64 87.23 12.17C86.97 12.71 86.76 13.29 86.6 13.92C87.88 13.74 88.92 13.55 89.7 13.34C90.48 13.14 91.08 12.91 91.51 12.66C91.94 12.41 92.23 12.15 92.37 11.87C92.51 11.59 92.58 11.29 92.58 10.97C92.58 10.81 92.54 10.65 92.48 10.49C92.41 10.32 92.3 10.18 92.17 10.05C92.03 9.92 91.84 9.81 91.62 9.72C91.4 9.63 91.13 9.59 90.81 9.59Z" fill="#50545B"/>
<path fill-rule="evenodd" clip-rule="evenodd" d="M109.17 10.83C109.17 11.54 109.03 12.2 108.74 12.79C108.46 13.38 107.95 13.9 107.21 14.37C106.48 14.83 105.48 15.24 104.22 15.57C102.97 15.91 101.37 16.17 99.42 16.37V16.57C99.42 19.08 100.48 20.33 102.6 20.33C103.06 20.33 103.46 20.28 103.81 20.2C104.16 20.11 104.47 20 104.74 19.88C105 19.75 105.24 19.61 105.45 19.46C105.66 19.3 105.86 19.16 106.04 19.04C106.22 18.92 106.4 18.81 106.58 18.72C106.75 18.63 106.94 18.59 107.15 18.59C107.27 18.59 107.4 18.62 107.52 18.68C107.65 18.73 107.75 18.82 107.83 18.93L108.81 20.11C108.26 20.66 107.72 21.14 107.2 21.54C106.67 21.94 106.13 22.27 105.58 22.53C105.03 22.79 104.45 22.98 103.84 23.11C103.23 23.23 102.57 23.29 101.84 23.29C100.91 23.29 100.07 23.14 99.31 22.82C98.56 22.5 97.91 22.06 97.37 21.48C96.83 20.91 96.42 20.22 96.12 19.41C95.83 18.59 95.68 17.68 95.68 16.68C95.68 15.84 95.77 15.02 95.95 14.21C96.13 13.41 96.39 12.64 96.74 11.92C97.08 11.19 97.5 10.53 97.99 9.91C98.49 9.3 99.05 8.78 99.68 8.33C100.3 7.89 100.99 7.54 101.74 7.29C102.49 7.04 103.3 6.92 104.15 6.92C104.99 6.92 105.72 7.04 106.35 7.28C106.98 7.51 107.5 7.82 107.92 8.2C108.34 8.58 108.65 9 108.86 9.46C109.06 9.93 109.17 10.39 109.17 10.83ZM103.94 9.59C103.42 9.59 102.94 9.69 102.49 9.91C102.05 10.12 101.65 10.42 101.29 10.8C100.93 11.18 100.62 11.64 100.36 12.17C100.1 12.71 99.89 13.29 99.73 13.92C101.01 13.74 102.05 13.55 102.83 13.34C103.61 13.14 104.21 12.91 104.64 12.66C105.07 12.41 105.36 12.15 105.5 11.87C105.64 11.59 105.71 11.29 105.71 10.97C105.71 10.81 105.67 10.65 105.61 10.49C105.54 10.32 105.43 10.18 105.3 10.05C105.16 9.92 104.97 9.81 104.75 9.72C104.53 9.63 104.26 9.59 103.94 9.59Z" fill="#50545B"/>
</g>
<defs>
<clipPath id="clip0">
<rect width="109.17" height="23.3" fill="white"/>
</clipPath>
</defs>
</svg>
