<?xml version="1.0" encoding="UTF-8"?>
<!DOCTYPE svg PUBLIC "-//W3C//DTD SVG 1.1//EN" "http://www.w3.org/Graphics/SVG/1.1/DTD/svg11.dtd">
<svg version="1.2" width="109.17mm" height="23.3mm" viewBox="2092 8738 10917 2330" preserveAspectRatio="xMidYMid" fill-rule="evenodd" stroke-width="28.222" stroke-linejoin="round" xmlns="http://www.w3.org/2000/svg" xmlns:ooo="http://xml.openoffice.org/svg/export" xmlns:xlink="http://www.w3.org/1999/xlink" xmlns:presentation="http://sun.com/xmlns/staroffice/presentation" xmlns:smil="http://www.w3.org/2001/SMIL20/" xmlns:anim="urn:oasis:names:tc:opendocument:xmlns:animation:1.0" xml:space="preserve">
 <defs class="ClipPathGroup">
  <clipPath id="presentation_clip_path" clipPathUnits="userSpaceOnUse">
   <rect x="2092" y="8738" width="10917" height="2330"/>
  </clipPath>
  <clipPath id="presentation_clip_path_shrink" clipPathUnits="userSpaceOnUse">
   <rect x="2102" y="8740" width="10896" height="2326"/>
  </clipPath>
 </defs>
 <defs class="TextShapeIndex">
  <g ooo:slide="id1" ooo:id-list="id3 id4 id5 id6 id7 id8 id9 id10 id11 id12"/>
 </defs>
 <defs class="EmbeddedBulletChars">
  <g id="bullet-char-template-57356" transform="scale(0.00048828125,-0.00048828125)">
   <path d="M 580,1141 L 1163,571 580,0 -4,571 580,1141 Z"/>
  </g>
  <g id="bullet-char-template-57354" transform="scale(0.00048828125,-0.00048828125)">
   <path d="M 8,1128 L 1137,1128 1137,0 8,0 8,1128 Z"/>
  </g>
  <g id="bullet-char-template-10146" transform="scale(0.00048828125,-0.00048828125)">
   <path d="M 174,0 L 602,739 174,1481 1456,739 174,0 Z M 1358,739 L 309,1346 659,739 1358,739 Z"/>
  </g>
  <g id="bullet-char-template-10132" transform="scale(0.00048828125,-0.00048828125)">
   <path d="M 2015,739 L 1276,0 717,0 1260,543 174,543 174,936 1260,936 717,1481 1274,1481 2015,739 Z"/>
  </g>
  <g id="bullet-char-template-10007" transform="scale(0.00048828125,-0.00048828125)">
   <path d="M 0,-2 C -7,14 -16,27 -25,37 L 356,567 C 262,823 215,952 215,954 215,979 228,992 255,992 264,992 276,990 289,987 310,991 331,999 354,1012 L 381,999 492,748 772,1049 836,1024 860,1049 C 881,1039 901,1025 922,1006 886,937 835,863 770,784 769,783 710,716 594,584 L 774,223 C 774,196 753,168 711,139 L 727,119 C 717,90 699,76 672,76 641,76 570,178 457,381 L 164,-76 C 142,-110 111,-127 72,-127 30,-127 9,-110 8,-76 1,-67 -2,-52 -2,-32 -2,-23 -1,-13 0,-2 Z"/>
  </g>
  <g id="bullet-char-template-10004" transform="scale(0.00048828125,-0.00048828125)">
   <path d="M 285,-33 C 182,-33 111,30 74,156 52,228 41,333 41,471 41,549 55,616 82,672 116,743 169,778 240,778 293,778 328,747 346,684 L 369,508 C 377,444 397,411 428,410 L 1163,1116 C 1174,1127 1196,1133 1229,1133 1271,1133 1292,1118 1292,1087 L 1292,965 C 1292,929 1282,901 1262,881 L 442,47 C 390,-6 338,-33 285,-33 Z"/>
  </g>
  <g id="bullet-char-template-9679" transform="scale(0.00048828125,-0.00048828125)">
   <path d="M 813,0 C 632,0 489,54 383,161 276,268 223,411 223,592 223,773 276,916 383,1023 489,1130 632,1184 813,1184 992,1184 1136,1130 1245,1023 1353,916 1407,772 1407,592 1407,412 1353,268 1245,161 1136,54 992,0 813,0 Z"/>
  </g>
  <g id="bullet-char-template-8226" transform="scale(0.00048828125,-0.00048828125)">
   <path d="M 346,457 C 273,457 209,483 155,535 101,586 74,649 74,723 74,796 101,859 155,911 209,963 273,989 346,989 419,989 480,963 531,910 582,859 608,796 608,723 608,648 583,586 532,535 482,483 420,457 346,457 Z"/>
  </g>
  <g id="bullet-char-template-8211" transform="scale(0.00048828125,-0.00048828125)">
   <path d="M -4,459 L 1135,459 1135,606 -4,606 -4,459 Z"/>
  </g>
  <g id="bullet-char-template-61548" transform="scale(0.00048828125,-0.00048828125)">
   <path d="M 173,740 C 173,903 231,1043 346,1159 462,1274 601,1332 765,1332 928,1332 1067,1274 1183,1159 1299,1043 1357,903 1357,740 1357,577 1299,437 1183,322 1067,206 928,148 765,148 601,148 462,206 346,322 231,437 173,577 173,740 Z"/>
  </g>
 </defs>
 <defs class="TextEmbeddedBitmaps"/>
 <g class="SlideGroup">
  <g>
   <g id="container-id1">
    <g id="id1" class="Slide" clip-path="url(#presentation_clip_path)">
     <g class="Page">
      <g class="com.sun.star.drawing.ClosedBezierShape">
       <g id="id3">
        <rect class="BoundingBox" stroke="none" fill="none" x="2091" y="9428" width="1306" height="1641"/>
        <path fill="rgb(102,51,0)" stroke="none" d="M 3315,10762 C 3262,10819 3211,10868 3163,10907 3115,10947 3066,10978 3017,11002 2967,11026 2915,11043 2860,11053 2805,11062 2745,11067 2680,11067 2588,11067 2505,11052 2432,11020 2359,10988 2297,10944 2247,10886 2196,10828 2158,10758 2131,10676 2105,10594 2092,10503 2092,10403 2092,10274 2112,10150 2154,10033 2195,9915 2253,9812 2328,9722 2402,9633 2490,9562 2593,9508 2695,9455 2807,9428 2928,9428 3034,9428 3123,9447 3197,9484 3271,9521 3337,9577 3395,9652 L 3273,9798 C 3263,9807 3253,9816 3241,9823 3229,9831 3216,9835 3201,9835 3184,9835 3168,9830 3153,9819 3139,9808 3122,9796 3103,9784 3084,9771 3060,9760 3031,9749 3003,9738 2966,9733 2920,9733 2861,9733 2805,9749 2751,9781 2697,9813 2650,9858 2609,9917 2568,9976 2536,10047 2511,10130 2487,10213 2475,10304 2475,10405 2475,10521 2501,10612 2553,10675 2604,10739 2674,10771 2762,10771 2821,10771 2870,10762 2909,10745 2948,10728 2980,10710 3007,10689 3034,10669 3058,10651 3079,10633 3101,10616 3124,10608 3149,10608 3161,10608 3173,10611 3185,10618 3197,10625 3207,10633 3217,10644 L 3315,10762 Z"/>
       </g>
      </g>
      <g class="com.sun.star.drawing.ClosedBezierShape">
       <g id="id4">
        <rect class="BoundingBox" stroke="none" fill="none" x="3307" y="8737" width="1468" height="2308"/>
        <path fill="rgb(102,51,0)" stroke="none" d="M 3307,11044 L 3588,8738 3970,8738 3850,9723 C 3928,9623 4012,9548 4103,9500 4193,9451 4285,9427 4380,9427 4440,9427 4494,9437 4543,9459 4591,9480 4633,9511 4667,9552 4701,9593 4727,9643 4746,9702 4764,9762 4774,9830 4774,9908 4774,9928 4773,9948 4771,9968 4770,9988 4768,10009 4766,10031 L 4646,11044 4263,11044 4383,10031 C 4385,10012 4387,9994 4388,9978 4390,9961 4390,9946 4390,9931 4390,9863 4377,9814 4352,9784 4326,9754 4286,9739 4234,9739 4194,9739 4153,9750 4111,9772 4069,9794 4028,9826 3988,9867 3949,9908 3912,9957 3878,10015 3844,10073 3815,10138 3791,10209 L 3690,11044 3307,11044 Z"/>
       </g>
      </g>
      <g class="com.sun.star.drawing.ClosedBezierShape">
       <g id="id5">
        <rect class="BoundingBox" stroke="none" fill="none" x="4813" y="8742" width="668" height="2303"/>
        <path fill="rgb(102,51,0)" stroke="none" d="M 5383,9452 L 5193,11044 4814,11044 5005,9452 5383,9452 Z M 5480,8988 C 5480,9021 5473,9052 5459,9081 5445,9110 5427,9135 5404,9157 5382,9178 5357,9196 5328,9209 5299,9222 5269,9228 5238,9228 5208,9228 5178,9222 5150,9209 5121,9196 5096,9178 5075,9157 5053,9135 5036,9110 5023,9081 5010,9052 5003,9021 5003,8988 5003,8954 5010,8923 5023,8893 5037,8863 5054,8837 5076,8815 5098,8792 5123,8775 5151,8762 5180,8749 5209,8742 5239,8742 5270,8742 5300,8749 5329,8762 5358,8775 5384,8792 5406,8814 5428,8836 5446,8861 5459,8891 5473,8921 5480,8953 5480,8988 Z"/>
       </g>
      </g>
      <g class="com.sun.star.drawing.ClosedBezierShape">
       <g id="id6">
        <rect class="BoundingBox" stroke="none" fill="none" x="5376" y="9428" width="1306" height="1641"/>
        <path fill="rgb(102,51,0)" stroke="none" d="M 6600,10762 C 6547,10819 6496,10868 6448,10907 6400,10947 6351,10978 6302,11002 6252,11026 6200,11043 6145,11053 6090,11062 6030,11067 5965,11067 5873,11067 5790,11052 5717,11020 5644,10988 5582,10944 5532,10886 5481,10828 5443,10758 5416,10676 5390,10594 5377,10503 5377,10403 5377,10274 5397,10150 5439,10033 5480,9915 5538,9812 5613,9722 5687,9633 5775,9562 5878,9508 5980,9455 6092,9428 6213,9428 6319,9428 6408,9447 6482,9484 6556,9521 6622,9577 6680,9652 L 6558,9798 C 6548,9807 6538,9816 6526,9823 6514,9831 6501,9835 6486,9835 6469,9835 6453,9830 6438,9819 6424,9808 6407,9796 6388,9784 6369,9771 6345,9760 6316,9749 6288,9738 6251,9733 6205,9733 6146,9733 6090,9749 6036,9781 5982,9813 5935,9858 5894,9917 5853,9976 5821,10047 5796,10130 5772,10213 5760,10304 5760,10405 5760,10521 5786,10612 5838,10675 5889,10739 5959,10771 6047,10771 6106,10771 6155,10762 6194,10745 6233,10728 6265,10710 6292,10689 6319,10669 6343,10651 6364,10633 6386,10616 6409,10608 6434,10608 6446,10608 6458,10611 6470,10618 6482,10625 6492,10633 6502,10644 L 6600,10762 Z"/>
       </g>
      </g>
      <g class="com.sun.star.drawing.ClosedBezierShape">
       <g id="id7">
        <rect class="BoundingBox" stroke="none" fill="none" x="6588" y="8737" width="1541" height="2308"/>
        <path fill="rgb(102,51,0)" stroke="none" d="M 7249,8738 L 7088,10058 7127,10058 C 7151,10058 7170,10055 7185,10048 7200,10040 7216,10027 7232,10007 L 7654,9518 C 7673,9498 7692,9481 7712,9469 7732,9458 7756,9452 7786,9452 L 8128,9452 7603,10043 C 7584,10065 7564,10085 7544,10103 7525,10121 7504,10137 7482,10150 7502,10165 7518,10182 7531,10204 7544,10225 7557,10247 7569,10271 L 7963,11044 7631,11044 C 7603,11044 7580,11039 7562,11028 7544,11018 7529,11001 7516,10976 L 7207,10372 C 7195,10348 7182,10333 7169,10325 7157,10318 7136,10315 7107,10315 L 7055,10315 6967,11044 6588,11044 6871,8738 7249,8738 Z"/>
       </g>
      </g>
      <g class="com.sun.star.drawing.ClosedBezierShape">
       <g id="id8">
        <rect class="BoundingBox" stroke="none" fill="none" x="7902" y="9428" width="1468" height="1641"/>
        <path fill="rgb(102,51,0)" stroke="none" d="M 9176,11044 L 8974,11044 C 8927,11044 8895,11033 8876,11011 8857,10990 8848,10962 8848,10929 L 8861,10712 C 8790,10822 8711,10908 8623,10972 8535,11035 8438,11067 8333,11067 8273,11067 8217,11055 8164,11032 8112,11008 8067,10972 8028,10925 7989,10878 7959,10819 7936,10748 7914,10677 7903,10594 7903,10499 7903,10404 7915,10311 7939,10221 7962,10131 7996,10047 8040,9968 8084,9889 8137,9816 8199,9750 8261,9683 8331,9627 8408,9579 8485,9531 8569,9494 8658,9468 8748,9442 8842,9428 8941,9428 9013,9428 9084,9434 9156,9444 9228,9454 9299,9473 9368,9500 L 9176,11044 Z M 8483,10754 C 8526,10754 8567,10739 8608,10710 8649,10681 8688,10641 8724,10590 8760,10539 8794,10479 8825,10409 8856,10340 8883,10265 8906,10186 L 8966,9705 C 8938,9702 8912,9700 8888,9700 8803,9700 8723,9720 8649,9759 8576,9798 8512,9851 8459,9918 8405,9985 8363,10062 8332,10151 8302,10239 8286,10333 8286,10431 8286,10543 8304,10624 8339,10676 8374,10728 8422,10754 8483,10754 Z"/>
       </g>
      </g>
      <g class="com.sun.star.drawing.ClosedBezierShape">
       <g id="id9">
        <rect class="BoundingBox" stroke="none" fill="none" x="9329" y="9440" width="1092" height="1606"/>
        <path fill="rgb(102,51,0)" stroke="none" d="M 9330,11044 L 9524,9450 9718,9450 C 9755,9450 9785,9458 9809,9475 9833,9491 9845,9518 9845,9554 9845,9554 9845,9556 9845,9560 9845,9563 9844,9574 9843,9591 9842,9609 9841,9637 9840,9674 9839,9712 9837,9765 9834,9833 9899,9708 9971,9612 10048,9543 10126,9475 10207,9441 10290,9441 10333,9441 10376,9450 10419,9469 L 10349,9835 C 10298,9813 10248,9802 10202,9802 10110,9802 10029,9846 9960,9934 9890,10022 9834,10160 9789,10347 L 9705,11044 9330,11044 Z"/>
       </g>
      </g>
      <g class="com.sun.star.drawing.ClosedBezierShape">
       <g id="id10">
        <rect class="BoundingBox" stroke="none" fill="none" x="9869" y="10598" width="473" height="469"/>
        <path fill="rgb(150,75,0)" stroke="none" d="M 9870,10833 C 9870,10801 9876,10770 9888,10741 9900,10712 9916,10688 9937,10667 9958,10646 9983,10630 10012,10617 10040,10605 10071,10599 10104,10599 10137,10599 10168,10605 10196,10617 10225,10630 10250,10646 10271,10667 10292,10688 10309,10712 10321,10741 10334,10770 10340,10801 10340,10833 10340,10866 10334,10897 10321,10925 10309,10954 10292,10978 10271,10999 10250,11020 10225,11036 10196,11048 10168,11060 10137,11066 10104,11066 10071,11066 10040,11060 10012,11048 9983,11036 9958,11020 9937,10999 9916,10978 9900,10954 9888,10925 9876,10897 9870,10866 9870,10833 Z"/>
       </g>
      </g>
      <g class="com.sun.star.drawing.ClosedBezierShape">
       <g id="id11">
        <rect class="BoundingBox" stroke="none" fill="none" x="10347" y="9429" width="1350" height="1640"/>
        <path fill="rgb(102,51,0)" stroke="none" d="M 11696,9821 C 11696,9892 11682,9958 11653,10017 11625,10076 11574,10128 11500,10175 11427,10221 11327,10262 11201,10295 11076,10329 10916,10355 10721,10375 L 10721,10395 C 10721,10646 10827,10771 11039,10771 11085,10771 11125,10766 11160,10758 11195,10749 11226,10738 11253,10726 11279,10713 11303,10699 11324,10684 11345,10668 11365,10654 11383,10642 11401,10630 11419,10619 11437,10610 11454,10601 11473,10597 11494,10597 11506,10597 11519,10600 11531,10606 11544,10611 11554,10620 11562,10631 L 11660,10749 C 11605,10804 11551,10852 11499,10892 11446,10932 11392,10965 11337,10991 11282,11017 11224,11036 11163,11049 11102,11061 11036,11067 10963,11067 10870,11067 10786,11052 10710,11020 10635,10988 10570,10944 10516,10886 10462,10829 10421,10760 10391,10679 10362,10597 10347,10506 10347,10406 10347,10322 10356,10240 10374,10159 10392,10079 10418,10002 10453,9930 10487,9857 10529,9791 10578,9729 10628,9668 10684,9616 10747,9571 10809,9527 10878,9492 10953,9467 11028,9442 11109,9430 11194,9430 11278,9430 11351,9442 11414,9466 11477,9489 11529,9520 11571,9558 11613,9596 11644,9638 11665,9684 11685,9731 11696,9777 11696,9821 Z M 11173,9697 C 11121,9697 11073,9707 11028,9729 10984,9750 10944,9780 10908,9818 10872,9856 10841,9902 10815,9955 10789,10009 10768,10067 10752,10130 10880,10112 10984,10093 11062,10072 11140,10052 11200,10029 11243,10004 11286,9979 11315,9953 11329,9925 11343,9897 11350,9867 11350,9835 11350,9819 11346,9803 11340,9787 11333,9770 11322,9756 11309,9743 11295,9730 11276,9719 11254,9710 11232,9701 11205,9697 11173,9697 Z"/>
       </g>
      </g>
      <g class="com.sun.star.drawing.ClosedBezierShape">
       <g id="id12">
        <rect class="BoundingBox" stroke="none" fill="none" x="11660" y="9429" width="1350" height="1640"/>
        <path fill="rgb(102,51,0)" stroke="none" d="M 13009,9821 C 13009,9892 12995,9958 12966,10017 12938,10076 12887,10128 12813,10175 12740,10221 12640,10262 12514,10295 12389,10329 12229,10355 12034,10375 L 12034,10395 C 12034,10646 12140,10771 12352,10771 12398,10771 12438,10766 12473,10758 12508,10749 12539,10738 12566,10726 12592,10713 12616,10699 12637,10684 12658,10668 12678,10654 12696,10642 12714,10630 12732,10619 12750,10610 12767,10601 12786,10597 12807,10597 12819,10597 12832,10600 12844,10606 12857,10611 12867,10620 12875,10631 L 12973,10749 C 12918,10804 12864,10852 12812,10892 12759,10932 12705,10965 12650,10991 12595,11017 12537,11036 12476,11049 12415,11061 12349,11067 12276,11067 12183,11067 12099,11052 12023,11020 11948,10988 11883,10944 11829,10886 11775,10829 11734,10760 11704,10679 11675,10597 11660,10506 11660,10406 11660,10322 11669,10240 11687,10159 11705,10079 11731,10002 11766,9930 11800,9857 11842,9791 11891,9729 11941,9668 11997,9616 12060,9571 12122,9527 12191,9492 12266,9467 12341,9442 12422,9430 12507,9430 12591,9430 12664,9442 12727,9466 12790,9489 12842,9520 12884,9558 12926,9596 12957,9638 12978,9684 12998,9731 13009,9777 13009,9821 Z M 12486,9697 C 12434,9697 12386,9707 12341,9729 12297,9750 12257,9780 12221,9818 12185,9856 12154,9902 12128,9955 12102,10009 12081,10067 12065,10130 12193,10112 12297,10093 12375,10072 12453,10052 12513,10029 12556,10004 12599,9979 12628,9953 12642,9925 12656,9897 12663,9867 12663,9835 12663,9819 12659,9803 12653,9787 12646,9770 12635,9756 12622,9743 12608,9730 12589,9719 12567,9710 12545,9701 12518,9697 12486,9697 Z"/>
       </g>
      </g>
     </g>
    </g>
   </g>
  </g>
 </g>
</svg>